name rise30.6535peak61.5555fall82.9339.mot
datacolumns 19
datarows 14
range 11.30162300000000 11.32328600000000
endheader
time	ground_force1_vx	ground_force1_vy	ground_force1_vz	ground_force1_px	ground_force1_py	ground_force1_pz	ground_force2_vx	ground_force2_vy	ground_force2_vz	ground_force2_px	ground_force2_py	ground_force2_pz	ground_torque1_x	ground_torque1_y	ground_torque1_z	ground_torque2_x	ground_torque2_y	ground_torque2_z	
11.30162300000000	-7.50767900000000	41.98028200000000	-10.77059000000000	0.33106700000000	0.00000000000000	0.08560700000000	-45.42252000000000	807.62159199999996	-43.63311300000000	0.15226900000000	0.00000000000000	-0.08078300000000	0.00000000000000	-7.54414100000000	0.00000000000000	0.00000000000000	-18.56318200000000	0.00000000000000	
11.30328200000000	-8.17059000000000	49.02775900000000	-12.10489200000000	0.33679400000000	0.00000000000000	0.08591100000000	-46.37936200000000	805.67747899999995	-43.34447700000000	0.15132200000000	0.00000000000000	-0.08067800000000	0.00000000000000	-8.58392600000000	0.00000000000000	0.00000000000000	-18.55580500000000	0.00000000000000	
11.30495700000000	-8.67474300000000	56.11660600000000	-13.31588000000000	0.34219800000000	0.00000000000000	0.08619200000000	-47.36436800000000	803.62897299999997	-43.04627400000000	0.15038300000000	0.00000000000000	-0.08056900000000	0.00000000000000	-9.55772500000000	0.00000000000000	0.00000000000000	-18.55271400000000	0.00000000000000	
11.30662000000000	-8.99972400000000	63.15134700000000	-14.37543900000000	0.34731800000000	0.00000000000000	0.08645300000000	-48.37664200000000	801.47290199999998	-42.73828700000000	0.14945300000000	0.00000000000000	-0.08045800000000	0.00000000000000	-10.44326400000000	0.00000000000000	0.00000000000000	-18.55375800000000	0.00000000000000	
11.30828200000000	-9.13397200000000	70.06078300000000	-15.26513900000000	0.35218800000000	0.00000000000000	0.08669900000000	-49.41516900000000	799.20601799999997	-42.42028900000000	0.14853400000000	0.00000000000000	-0.08034500000000	0.00000000000000	-11.22468900000000	0.00000000000000	0.00000000000000	-18.55875900000000	0.00000000000000	
11.30994900000000	-9.07457500000000	76.80002399999999	-15.97633400000000	0.35683200000000	0.00000000000000	0.08693100000000	-50.47880700000000	796.82501700000000	-42.09204600000000	0.14762600000000	0.00000000000000	-0.08022800000000	0.00000000000000	-11.89289500000000	0.00000000000000	0.00000000000000	-18.56751800000000	0.00000000000000	
11.31162400000000	-8.82640900000000	83.35002900000001	-16.50945900000000	0.36127300000000	0.00000000000000	0.08715100000000	-51.56629400000000	794.32653900000003	-41.75331400000000	0.14673000000000	0.00000000000000	-0.08010900000000	0.00000000000000	-12.44526300000000	0.00000000000000	0.00000000000000	-18.57980800000000	0.00000000000000	
11.31328700000000	-8.40078200000000	89.71508400000000	-16.87268100000000	0.36552800000000	0.00000000000000	0.08736100000000	-52.67624000000000	791.70718199999999	-41.40384900000000	0.14584700000000	0.00000000000000	-0.07998700000000	0.00000000000000	-12.88489100000000	0.00000000000000	0.00000000000000	-18.59538300000000	0.00000000000000	
11.31495500000000	-7.81378600000000	95.91880800000000	-17.08016800000000	0.36961200000000	0.00000000000000	0.08756200000000	-53.80713500000000	788.96351400000003	-41.04340200000000	0.14497800000000	0.00000000000000	-0.07986200000000	0.00000000000000	-13.21950200000000	0.00000000000000	0.00000000000000	-18.61397200000000	0.00000000000000	
11.31661900000000	-7.08454000000000	101.99924700000000	-17.15015300000000	0.37353500000000	0.00000000000000	0.08775600000000	-54.95734600000000	786.09208200000000	-40.67172300000000	0.14412400000000	0.00000000000000	-0.07973400000000	0.00000000000000	-13.46014100000000	0.00000000000000	0.00000000000000	-18.63528300000000	0.00000000000000	
11.31828500000000	-6.23349400000000	108.00364100000000	-17.10300500000000	0.37730900000000	0.00000000000000	0.08794500000000	-56.12512100000000	783.08942200000001	-40.28856600000000	0.14328500000000	0.00000000000000	-0.07960300000000	0.00000000000000	-13.61982900000000	0.00000000000000	0.00000000000000	-18.65900100000000	0.00000000000000	
11.31995500000000	-5.28091900000000	113.98334500000000	-16.95946200000000	0.38094300000000	0.00000000000000	0.08812700000000	-57.30858400000000	779.95207400000004	-39.89368900000000	0.14246100000000	0.00000000000000	-0.07946900000000	0.00000000000000	-13.71228300000000	0.00000000000000	0.00000000000000	-18.68479400000000	0.00000000000000	
11.32162100000000	-4.24566100000000	119.98926500000000	-16.73913000000000	0.38444200000000	0.00000000000000	0.08830500000000	-58.50574900000000	776.67659300000003	-39.48685600000000	0.14165400000000	0.00000000000000	-0.07933300000000	0.00000000000000	-13.75078700000000	0.00000000000000	0.00000000000000	-18.71230700000000	0.00000000000000	
11.32328600000000	-3.14422900000000	126.06810600000000	-16.45933100000000	0.38781300000000	0.00000000000000	0.08847900000000	-59.71451000000000	773.25955899999997	-39.06784200000000	0.14086300000000	0.00000000000000	-0.07919300000000	0.00000000000000	-13.74729800000000	0.00000000000000	0.00000000000000	-18.74117000000000	0.00000000000000	
